<svg aria-hidden="true" style="position: absolute; width: 0; height: 0; overflow: hidden;" version="1.1" xmlns="http://www.w3.org/2000/svg" xmlns:xlink="http://www.w3.org/1999/xlink">
<defs>
<symbol id="icon-Faacebook" viewBox="0 0 18 32">
<path fill="#8dd83d" style="fill: var(--color1, #8dd83d)" d="M11.424 32v-14.597h5.189l0.777-5.689h-5.966v-3.632c0-1.647 0.484-2.769 2.986-2.769l3.19-0.001v-5.088c-0.552-0.069-2.446-0.224-4.649-0.224-4.6 0-7.749 2.651-7.749 7.52v4.195h-5.202v5.689h5.202v14.597h6.221z"></path>
</symbol>
<symbol id="icon-twiter" viewBox="0 0 32 32">
<path fill="#8dd83d" style="fill: var(--color1, #8dd83d)" d="M28.196 0h-24.392c-2.101 0-3.804 1.698-3.804 3.795v24.41c0 2.096 1.703 3.795 3.804 3.795h24.392c2.101 0 3.804-1.699 3.804-3.795v-24.41c0-2.096-1.703-3.795-3.804-3.795zM23 4.999c0-0.552 0.448-0.999 0.999-0.999h3c0.553 0 1 0.448 1 0.999v3.001c0 0.552-0.448 0.999-1 0.999h-3c-0.552 0-0.999-0.448-0.999-0.999v-3.001zM16.037 9.898c3.399 0 6.154 2.749 6.154 6.139s-2.756 6.139-6.154 6.139c-3.398 0-6.153-2.748-6.153-6.139s2.755-6.139 6.153-6.139zM29 28c0 0.552-0.448 1-1 1h-24c-0.553 0-1-0.448-1-1v-15h4c-0.521 0.75-0.697 2.149-0.697 3.037 0 5.355 4.368 9.712 9.735 9.712s9.735-4.357 9.735-9.712c0-0.889-0.126-2.266-0.772-3.037h4v15z"></path>
</symbol>
<symbol id="icon-Instagram" viewBox="0 0 37 32">
<path fill="#8dd83d" style="fill: var(--color1, #8dd83d)" d="M36.304 0.592c-1.481 0.925-3.118 1.597-4.867 1.957-1.394-1.569-3.385-2.549-5.59-2.549-4.227 0-7.657 3.617-7.657 8.078 0 0.634 0.066 1.248 0.197 1.839-6.366-0.337-12.008-3.55-15.788-8.443-0.66 1.198-1.037 2.587-1.037 4.066 0 2.801 1.352 5.274 3.408 6.723-1.254-0.039-2.437-0.406-3.472-1.007v0.098c0 3.916 2.641 7.182 6.147 7.921-0.642 0.19-1.32 0.285-2.019 0.285-0.493 0-0.975-0.049-1.441-0.143 0.975 3.208 3.802 5.545 7.154 5.607-2.621 2.167-5.925 3.459-9.512 3.459-0.618 0-1.229-0.037-1.827-0.111 3.389 2.289 7.417 3.627 11.741 3.627 14.090 0 21.792-12.307 21.792-22.984 0-0.352-0.006-0.702-0.019-1.047 1.496-1.139 2.796-2.561 3.819-4.181-1.372 0.642-2.849 1.077-4.398 1.271 1.582-0.999 2.796-2.582 3.368-4.468z"></path>
</symbol>
</defs>
</svg>
